<svg width="845" height="245" viewBox="0 0 845 245" fill="none" xmlns="http://www.w3.org/2000/svg">
<path d="M188.704 176.041C183.883 176.041 179.986 172.631 179.986 168.437V114.359C179.986 113.032 181.226 111.946 182.744 111.946H184.946C196.713 111.946 203.153 129.606 205.329 136.957L193.537 93.0861C194.574 97.4063 196.801 111.201 183.06 111.201H182.744C181.213 111.201 179.986 110.127 179.986 108.788V82.8541H192.297C206.822 82.8541 214.35 111.201 214.35 111.201L206.48 82.1088H164.651C163.032 82.1088 161.741 80.7951 161.766 79.1908C162.057 61.9858 162.538 39.728 162.538 39.728C162.703 38.8817 162.5 37.1763 164.765 37.1763H157.945C160.463 37.1763 159.944 38.869 160.109 39.728C160.147 41.3197 160.235 45.7409 160.261 47.3705C160.742 69.4261 161.222 96.5473 161.311 118.654C161.311 118.654 161.577 89.9533 161.653 85.0016C161.678 83.3846 163.019 82.0962 164.638 82.1593C170.054 82.3614 175.001 83.612 175.001 91.2166V167.691C175.001 176.774 164.651 176.787 158.16 176.787H206.126L221.284 117.277C221.284 117.277 206.316 176.041 188.678 176.041H188.704Z" fill="#515177"/>
<path d="M125.859 164.95C143.091 164.95 157.06 152.76 157.06 137.728C157.06 122.696 143.091 110.506 125.859 110.506C140.536 110.506 152.429 122.86 152.429 137.728C152.429 152.596 140.536 164.634 125.859 164.634C125.542 164.634 125.226 164.634 124.91 164.622C123.138 164.559 121.734 163.131 121.734 161.363V107.184C121.734 99.478 123.088 98.139 129.553 98.139H108.993C115.446 98.139 116.812 99.478 116.812 107.184V158.899C116.812 161.211 114.459 162.828 112.321 161.931C112.219 161.893 112.118 161.843 112.017 161.805C101.705 157.333 95.227 146.937 95.1258 135.707C95.0752 129.643 95.0246 123.605 94.974 117.63C95.4042 107.045 97.1249 106.666 103.983 106.666C95.0752 106.666 94.8348 106.059 94.8348 83.1699C94.8348 106.072 94.5944 106.666 85.6871 106.666C92.5447 106.666 94.2654 107.032 94.6956 117.618C94.6197 127.547 94.5312 137.678 94.4299 147.821C94.4299 148.705 93.2153 148.92 92.8863 148.112C80.9424 119.222 30.497 110.544 30.497 84.231C30.497 71.561 40.8341 64.247 53.689 64.247C70.4535 64.247 77.0581 77.4097 79.0192 81.0603V51.4127C79.0192 53.5602 78.7156 70.7904 68.505 66.4323C65.6962 65.2323 61.2425 63.0217 53.4233 63.0217C44.9208 63.0217 36.9877 65.5228 31.7622 70.5504C30.826 71.4473 29.2697 70.8157 29.295 69.5146C29.3962 62.4406 29.5734 51.7412 29.5734 51.7285C29.7505 50.5664 29.257 48.2547 31.7875 48.2547H24.9679C27.3212 48.2547 26.9796 49.8969 27.1567 51.7285C27.258 54.2044 28.2322 135.593 28.2702 141.442C28.2828 143.766 26.4988 145.674 24.1834 145.863C11.0881 146.924 1.04203 155.994 0.0298295 168.778C-0.805234 185.591 15.9593 202.657 41.9348 203.87C65.1901 205.095 86.0793 192.88 92.9623 174.475C93.19 173.856 94.1263 174.033 94.1136 174.702C93.9491 187.713 93.7847 200.484 93.6202 212.624C93.5063 214.582 93.6075 216.603 91.4693 216.603H98.833C95.8344 216.603 96.0621 214.266 96.0495 212.624C95.8217 196.404 95.594 179.06 95.4042 161.527C95.3789 159.632 95.4042 158.04 95.4295 156.954V156.853C95.9103 153.859 99.6175 152.722 101.692 154.933C105.083 158.558 109.537 161.413 114.623 163.131C115.939 163.573 116.812 164.811 116.812 166.201V185.553C116.812 201.558 115.458 202.885 108.993 202.885H129.553C123.1 202.885 121.734 201.546 121.734 185.553V168.209C121.734 166.378 123.24 164.912 125.062 164.963C125.327 164.963 125.593 164.963 125.871 164.963L125.859 164.95ZM88.8882 165.607C87.2054 189.254 65.4178 203.39 41.9475 202.164C18.4771 201.192 4.78716 185.831 5.62222 169.018C6.35607 157.99 12.657 148.427 23.2977 146.469C25.8662 145.989 28.2195 148.112 27.9918 150.714C27.3086 158.748 25.1956 159.051 18.7808 159.051C28.0804 159.051 28.3208 159.683 28.3208 183.57C28.3208 159.683 28.5612 159.051 37.8607 159.051C30.168 159.051 28.675 158.609 28.384 144.954C28.4726 131.311 28.6118 116.999 28.7889 102.762C28.8016 101.486 30.4211 100.956 31.1929 101.966C47.1982 122.708 90.9126 131.538 88.8629 165.62L88.8882 165.607Z" fill="#515177"/>
<path d="M772.349 207.647H778.499C776.904 207.647 776.689 205.84 776.639 204.274C776.31 184.29 775.981 162.285 775.74 140.697C775.74 139.686 775.778 138.688 775.955 137.69C776.689 133.623 778.461 133.433 782.725 133.433C777.474 133.433 775.993 133.168 775.589 125.639C775.538 120.283 775.5 114.99 775.475 109.786C775.449 105.301 776.563 100.893 778.701 96.9515L784.205 86.8332C788.38 79.3676 790.468 78.0286 796.971 78.0286H768.275C774.779 78.0286 787.52 79.3676 783.344 86.8332L736.29 173.515L735.632 99.3137C735.531 91.8482 736.935 90.5092 743.439 90.5092H723.055C721.942 90.5092 721.044 89.5996 721.056 88.488C721.132 82.3993 721.322 68.2261 721.322 68.2261C721.449 66.7355 721.322 64.1712 723.182 64.1712H717.033C719.019 64.1712 718.716 66.8745 718.893 68.2261C718.893 74.7064 719.374 107.057 719.525 119.209C719.525 119.462 719.184 119.513 719.108 119.273C716.248 109.533 707.303 102.914 694.954 102.914C678.455 102.914 661.615 114.712 655.301 130.01C655.023 130.679 654.036 130.502 654.036 129.782C653.998 124.565 653.631 60.5331 653.593 39.4249C653.555 60.9626 653.454 83.8647 653.302 107.095C653.302 108.434 652.202 109.533 650.848 109.533H631.983C638.486 109.533 639.853 110.872 639.853 118.628V174.753L598.985 83.3089H589.584C588.813 83.3089 588.18 82.6772 588.193 81.894C588.243 78.1802 588.294 74.0874 588.307 72.7231C588.307 72.4073 588.332 72.0915 588.345 71.7757C588.42 70.2472 588.294 67.8977 590.356 67.8977H583.208C586.548 67.8977 585.725 70.803 585.89 72.2431C585.928 75.098 585.966 78.0539 586.004 81.0603C586.067 85.9742 586.13 91.0523 586.181 96.2441C586.485 121.546 586.776 149.413 586.94 172.327L587.092 207.142C587.13 190.657 587.244 172.934 587.396 154.971C587.396 154.263 587.978 153.695 588.686 153.695H604.287C597.783 153.695 596.417 152.356 596.417 144.6V90.9134L641.219 190.935V118.616C641.219 112.451 645.66 110.468 650.532 109.824C651.987 109.634 653.277 110.771 653.264 112.236C653.024 149.135 652.695 186.652 652.379 220.746C652.202 223.841 652.644 226.595 650.519 226.595H656.668C655.264 226.595 655.023 224.208 654.897 222.237C654.833 221.163 654.795 220.089 654.783 219.016C654.58 197.781 654.378 175.271 654.201 152.432C654.201 152.053 654.707 151.939 654.871 152.28C658.578 160.314 666.866 165.569 677.873 165.569C695.865 165.569 714.262 151.548 718.981 134.242C719.26 133.218 719.475 132.208 719.652 131.21C719.766 141.783 719.867 152.065 719.943 161.451L720.095 193.878C720.171 162.815 720.55 127.104 720.955 94.3367C720.98 92.7829 722.499 91.6713 723.966 92.1513C727.762 93.3893 730.647 95.5367 730.647 99.3137L731.33 182.471H732.191L773.653 106.211C774.108 105.365 775.386 105.693 775.386 106.64C775.361 112.843 775.31 119.184 775.26 125.639C774.855 133.155 773.374 133.42 768.124 133.42C772.387 133.42 774.159 133.597 774.893 137.665C775.07 138.65 775.12 139.661 775.108 140.671C774.931 156.828 774.69 173.212 774.45 188.812C774.374 194.055 774.285 199.221 774.209 204.249C774.209 205.752 774.121 207.622 772.349 207.622V207.647ZM595.076 144.65C595.076 151.724 593.924 153.455 588.8 153.708C588.066 153.746 587.434 153.152 587.446 152.407C587.636 130.376 587.889 108.068 588.142 87.3006C588.142 86.2774 589.218 85.6458 590.154 86.0753C593.077 87.4269 595.076 89.4354 595.076 92.4292V144.65ZM715.008 134.267C710.201 151.371 693.512 165.241 677.734 165.241C661.957 165.241 653.049 151.371 657.857 134.267C662.665 117.163 679.354 103.293 695.144 103.293C710.934 103.293 719.829 117.163 715.021 134.267H715.008Z" fill="#515177"/>
<path d="M838.851 50.1622C841.381 51.8928 840.534 53.636 840.711 55.3666C840.711 55.3666 840.812 65.346 840.85 68.6682C840.85 69.0977 840.774 69.5146 840.61 69.9062L807.207 151.03C806.903 151.775 805.853 152.154 805.183 151.75L781.94 137.614C781.94 137.614 793.074 145.396 805.271 153.948C805.613 154.188 805.727 154.617 805.562 155.034L799.59 169.22C796.503 176.85 788.456 178.189 781.94 178.189H808.561C802.045 178.189 797.363 176.837 800.451 169.22L805.866 156.499C806.182 155.729 807.283 155.362 807.941 155.817C807.941 155.817 826.844 169.308 836.434 176.205C839.8 178.618 841.799 182.496 841.824 186.64C841.875 196.96 841.913 207.028 841.938 216.616C842.039 167.603 843.14 55.3919 843.14 55.3919C843.317 53.6613 842.482 51.918 845 50.1874H838.851V50.1622ZM836.877 167.174C836.877 168.664 834.802 169.763 833.499 168.967L807.954 153.43C807.561 153.19 807.435 152.748 807.612 152.318L819.29 124.262C819.86 122.898 821.34 121.988 823.01 121.988H833.372C835.321 121.988 836.89 123.365 836.89 125.058V167.174H836.877ZM836.877 118.161C836.877 119.854 835.296 121.23 833.36 121.23H823.503C822.074 121.23 821.087 119.993 821.593 118.818L836.89 83.2331V118.148L836.877 118.161Z" fill="#515177"/>
<path d="M227.825 98.2526C227.825 82.3362 227.989 81.9193 234.189 81.9193C227.989 81.9193 227.825 81.5024 227.825 65.586C227.825 81.5024 227.66 81.9193 221.461 81.9193C227.66 81.9193 227.825 82.3362 227.825 98.2526Z" fill="#515177"/>
<path d="M96.5429 220.607C95.6319 220.405 95.0499 219.799 94.8475 218.75C94.645 219.812 94.0251 220.405 93.1141 220.607C94.0251 220.759 94.645 221.365 94.8475 222.464C95.0499 221.365 95.6319 220.759 96.5429 220.607Z" fill="#515177"/>
<path d="M163.183 122.14C162.07 121.938 161.475 121.357 161.324 120.447C161.121 121.357 160.514 121.938 159.464 122.14C160.526 122.342 161.121 122.961 161.324 123.871C161.475 122.961 162.083 122.342 163.183 122.14Z" fill="#515177"/>
<path d="M226.104 212.093C227.015 212.295 227.597 212.902 227.8 213.95C228.002 212.889 228.622 212.295 229.533 212.093C228.622 211.942 228.002 211.335 227.8 210.236C227.597 211.348 227.015 211.942 226.104 212.093Z" fill="#515177"/>
<path d="M294.263 141.985C294.061 142.895 293.453 143.476 292.403 143.678C293.466 143.88 294.061 144.499 294.263 145.408C294.415 144.499 295.022 143.88 296.123 143.678C295.01 143.476 294.415 142.895 294.263 141.985Z" fill="#515177"/>
<path d="M349.112 211.411C348.201 211.209 347.619 210.603 347.416 209.554C347.214 210.615 346.594 211.209 345.683 211.411C346.594 211.563 347.214 212.169 347.416 213.268C347.619 212.156 348.201 211.563 349.112 211.411Z" fill="#515177"/>
<path d="M415.613 212.093C414.702 211.891 414.12 211.285 413.918 210.236C413.715 211.297 413.095 211.891 412.184 212.093C413.095 212.245 413.715 212.851 413.918 213.95C414.12 212.839 414.702 212.245 415.613 212.093Z" fill="#515177"/>
<path d="M482.102 224.346C481.191 224.144 480.609 223.538 480.406 222.49C480.204 223.551 479.584 224.144 478.673 224.346C479.584 224.498 480.204 225.104 480.406 226.203C480.609 225.092 481.191 224.498 482.102 224.346Z" fill="#515177"/>
<path d="M775.007 210.097C774.69 210.54 774.26 210.83 773.703 210.956C774.614 211.108 775.234 211.714 775.437 212.813C775.639 211.702 776.221 211.108 777.132 210.956C776.575 210.83 776.158 210.54 775.854 210.097C775.664 209.82 775.513 209.504 775.437 209.1C775.361 209.504 775.196 209.82 775.007 210.097Z" fill="#515177"/>
<path d="M720.107 199.575C720.31 198.665 720.917 198.084 721.967 197.882C720.905 197.68 720.31 197.061 720.107 196.152C719.956 197.061 719.348 197.68 718.247 197.882C719.361 198.084 719.956 198.665 720.107 199.575Z" fill="#515177"/>
<path d="M655.327 231.559C654.416 231.357 653.834 230.751 653.631 229.703C653.429 230.764 652.809 231.357 651.898 231.559C652.809 231.711 653.429 232.317 653.631 233.416C653.834 232.305 654.416 231.711 655.327 231.559Z" fill="#515177"/>
<path d="M588.825 210.919C587.914 210.716 587.332 210.11 587.13 209.062C586.927 210.123 586.308 210.716 585.397 210.919C586.308 211.07 586.927 211.676 587.13 212.775C587.332 211.676 587.914 211.07 588.825 210.919Z" fill="#515177"/>
<path d="M686.857 109.558C686.857 132.839 686.616 133.446 677.557 133.446C686.616 133.446 686.857 134.052 686.857 157.333C686.857 134.052 687.097 133.446 696.156 133.446C687.097 133.446 686.857 132.839 686.857 109.558Z" fill="#515177"/>
<path d="M799.552 133.446C799.552 111.251 799.78 110.67 808.422 110.67C799.78 110.67 799.552 110.089 799.552 87.8943C799.552 110.089 799.325 110.67 790.683 110.67C799.325 110.67 799.552 111.251 799.552 133.446Z" fill="#515177"/>
<path d="M157.06 171.797C157.06 193.625 156.832 194.194 148.342 194.194C156.832 194.194 157.06 194.762 157.06 216.59C157.06 194.775 157.287 194.194 165.777 194.194C157.287 194.194 157.06 193.625 157.06 171.797Z" fill="#515177"/>
<path d="M841.925 219.167C841.723 220.077 841.116 220.658 840.066 220.86C841.128 221.062 841.723 221.681 841.925 222.591C842.077 221.681 842.685 221.062 843.785 220.86C842.672 220.658 842.077 220.077 841.925 219.167Z" fill="#515177"/>
<path d="M733.355 84.5468C733.355 62.7311 733.582 62.15 742.072 62.15C733.582 62.15 733.355 61.5816 733.355 39.7533C733.355 61.569 733.127 62.15 724.637 62.15C733.127 62.15 733.355 62.7185 733.355 84.5468Z" fill="#515177"/>
<path d="M565.001 128.229C565.001 153.089 564.773 153.733 556.321 153.746C564.773 153.746 565.001 154.402 565.001 179.25C565.001 154.39 565.228 153.733 573.68 153.746C565.228 153.746 565.001 153.089 565.001 128.229Z" fill="#515177"/>
<path d="M532.547 81.3509C532.256 82.6014 531.396 83.4099 529.877 83.6878C531.396 83.9783 532.256 84.8247 532.547 86.0879C532.762 84.8373 533.623 83.9783 535.204 83.6878C533.623 83.3973 532.762 82.6014 532.547 81.3509Z" fill="#515177"/>
<path d="M493.109 56.074C493.109 75.4138 492.882 75.9317 485.315 75.9317C492.92 75.9317 493.109 76.4496 493.109 95.9662C493.109 76.4496 493.312 75.9317 500.903 75.9317C494.843 75.9317 493.4 75.5906 493.109 65.586V56.074Z" fill="#515177"/>
<path d="M556.321 108.283H527.878V108.51C529.409 108.51 530.434 109.533 530.434 111.062V160.744C530.434 162.272 529.409 163.409 527.878 163.409C527.878 163.409 532.079 164.079 532.079 180.084C532.079 164.079 535.761 163.409 535.761 163.409C534.23 163.409 533.205 162.272 533.205 160.744V130.338C533.205 129.189 534.154 128.254 535.305 128.254H543.605C544.112 128.254 544.58 128.406 544.947 128.658C546.009 129.77 546.022 131.639 546.022 131.639V123.807C546.022 123.807 546.022 125.93 544.719 127.003C544.39 127.168 544.01 127.269 543.605 127.269H535.432C533.433 127.269 533.205 125.614 533.205 125.071V109.28H549.565C553.247 109.28 556.296 112.211 556.359 115.9C556.359 115.925 556.359 115.938 556.359 115.938V108.295H556.308L556.321 108.283Z" fill="#515177"/>
<path d="M506.863 83.7257C506.863 70.9167 517.301 58.5751 532.496 58.5751C547.692 58.5751 558.206 70.9167 558.206 83.7257C558.206 96.5347 547.768 108.876 532.496 108.876C517.225 108.876 506.863 96.5347 506.863 83.7257ZM555.878 79.3171C555.195 67.5692 546.503 61.1016 535.229 61.1016C517.908 61.1016 508.457 75.3885 509.216 88.1217C509.899 99.8696 518.591 106.539 529.865 106.539C547.186 106.539 556.637 92.0629 555.878 79.3171Z" fill="#515177"/>
<path d="M517.136 111.959L516.339 169.106L517.136 170.647L517.934 169.106L517.136 111.959Z" fill="#515177"/>
<path d="M545.288 158.887L544.491 188.598L545.288 190.139L546.085 188.598L545.288 158.887Z" fill="#515177"/>
<path d="M532.041 160.731C531.965 199.082 530.75 200.169 512.847 200.169C531.56 200.169 532.054 201.318 532.054 245C532.054 201.318 532.547 200.169 551.247 200.169C533.218 200.169 532.104 199.082 532.054 159.885" fill="#515177"/>
<path d="M508.697 163.396C506.192 162.828 504.598 161.11 504.028 158.104C503.459 161.11 501.751 162.828 499.246 163.396C501.751 163.826 503.459 165.544 504.028 168.689C504.598 165.544 506.192 163.826 508.697 163.396Z" fill="#515177"/>
<path d="M571.795 104.859C570.176 104.493 569.138 103.381 568.771 101.423C568.404 103.369 567.291 104.48 565.671 104.859C567.291 105.137 568.404 106.249 568.771 108.283C569.138 106.249 570.176 105.137 571.795 104.859Z" fill="#515177"/>
<path d="M565.127 53.0549C560.167 55.5561 554.702 58.7394 549.059 62.39C549.16 62.4406 549.274 62.4911 549.375 62.5416C554.803 58.9794 560.016 55.8971 564.684 53.5602C583.853 43.9977 586.978 49.9474 571.593 67.1397C556.359 84.2563 529.093 105.39 509.596 115.331C490.693 124.692 487.694 118.641 502.814 101.651C504.939 99.2632 507.305 96.8 509.849 94.2988C509.76 93.9072 509.646 93.503 509.57 93.1114C505.85 96.5852 502.447 100.009 499.499 103.28C484.329 120.473 488.567 126.005 509.14 115.837C530.282 105.074 559.37 82.8162 574.756 65.6239C590.192 48.2294 585.941 42.6966 565.115 53.0675L565.127 53.0549Z" fill="#515177"/>
<path d="M181.125 0.41686V0.214746H185.857V0.41686C184.364 0.41686 184.06 0.568445 184.06 2.60222V7.88244H191.892V2.60222C191.892 0.568445 191.576 0.41686 190.095 0.41686V0.214746H194.827V0.41686C193.334 0.41686 193.031 0.568445 193.031 2.60222V25.1885C193.031 27.2222 193.347 27.3738 194.827 27.3738V27.5633H190.095V27.3738C191.588 27.3738 191.892 27.2222 191.892 25.1885V8.07193H184.06V25.1885C184.06 27.2222 184.376 27.3738 185.857 27.3738V27.5633H181.125V27.3738C182.605 27.3738 182.921 27.2222 182.921 25.1885V2.60222C182.921 0.568445 182.605 0.41686 181.125 0.41686Z" fill="#515177"/>
<path d="M201.571 23.7358C196.206 18.1903 196.206 9.47409 201.571 4.08018C207.088 -1.35164 215.78 -1.35164 221.296 4.08018C226.661 9.47409 226.661 18.1776 221.296 23.7358C215.78 29.0918 207.088 29.0918 201.571 23.7358ZM202.482 22.8768C207.847 28.1949 216.096 28.4981 221.144 23.5842C226.079 18.4682 225.801 10.2573 220.398 4.9139C215.033 -0.48002 206.784 -0.745295 201.736 4.24439C196.801 9.17092 197.079 17.4829 202.482 22.8768Z" fill="#515177"/>
<path d="M239.136 1.20005L240.503 8.85512H240.313C238.782 2.45063 237.96 0.214746 234.366 0.214746C232.329 0.214746 228.66 1.14952 228.66 4.86337C228.66 10.6489 241.528 13.6553 241.528 20.4135C241.528 25.9211 238.01 27.7528 234.404 27.7528C232.405 27.7528 230.608 27.0075 229.166 26.3127L227.445 16.5481L227.648 16.5102C229.685 25.7316 231.089 27.5633 234.417 27.5633C238.605 27.5633 240.718 25.4537 240.718 21.1588C240.718 14.249 227.888 12.4426 227.888 5.41918C227.863 1.14952 231.494 0.0126321 234.354 0.0126321C236.783 0.0126321 238.618 0.871616 239.124 1.18742L239.136 1.20005Z" fill="#515177"/>
<path d="M243.932 0.41686V0.214746H248.664V0.41686C247.171 0.41686 246.867 0.568445 246.867 2.60222V7.88244H254.699V2.60222C254.699 0.568445 254.383 0.41686 252.902 0.41686V0.214746H257.634V0.41686C256.141 0.41686 255.838 0.568445 255.838 2.60222V25.1885C255.838 27.2222 256.154 27.3738 257.634 27.3738V27.5633H252.902V27.3738C254.395 27.3738 254.699 27.2222 254.699 25.1885V8.07193H246.867V25.1885C246.867 27.2222 247.183 27.3738 248.664 27.3738V27.5633H243.932V27.3738C245.412 27.3738 245.728 27.2222 245.728 25.1885V2.60222C245.728 0.568445 245.412 0.41686 243.932 0.41686Z" fill="#515177"/>
<path d="M260.861 0.41686V0.214746H265.593V0.41686C264.1 0.41686 263.796 0.568445 263.796 2.60222V25.1885C263.796 27.2222 264.112 27.3738 265.593 27.3738V27.5633H260.861V27.3738C262.341 27.3738 262.657 27.2222 262.657 25.1885V2.60222C262.657 0.568445 262.341 0.41686 260.861 0.41686Z" fill="#515177"/>
<path d="M270.59 0.41686V0.214746H273.133L278.182 24.4811L282.37 0.214746H285.305V0.41686C283.812 0.41686 283.546 0.568445 283.736 2.60222L285.773 25.1885C285.976 27.2222 286.317 27.3738 287.81 27.3738V27.5633H283.078V27.3738C284.571 27.3738 284.837 27.2222 284.647 25.1885L282.458 0.972673L277.84 27.5759H277.65L272.45 2.22325L270.413 25.1885C270.261 27.2222 270.527 27.3738 272.02 27.3738V27.5633H268.224V27.3738C269.717 27.3738 270.059 27.2222 270.223 25.1885L272.222 2.60222C272.374 0.568445 272.109 0.41686 270.616 0.41686H270.59Z" fill="#515177"/>
<path d="M302.462 27.5633H297.73V27.3738C299.223 27.3738 299.451 27.2222 299.096 25.2263L296.945 13.5037H293.226L291.037 25.2263C290.682 27.2222 290.923 27.3738 292.403 27.3738V27.5633H288.607V27.3738C290.1 27.3738 290.48 27.2222 290.834 25.2263L295.414 0.214746H295.693L300.235 25.2137C300.589 27.2096 300.982 27.3612 302.462 27.3612V27.5633ZM296.907 13.3016L295.111 3.38541L293.276 13.3016H296.92H296.907Z" fill="#515177"/>
<path d="M307.396 4.24439C302.386 9.20882 302.702 17.5334 308.067 22.8768C313.432 28.2328 321.719 28.536 326.691 23.5842C328.69 21.5883 329.779 19.1756 330.133 16.5481H330.677C330.171 19.2008 328.918 21.6641 326.843 23.6979C321.403 29.1297 312.71 29.1297 307.245 23.6979C301.804 18.266 301.804 9.51199 307.245 4.09281C312.723 -1.33901 321.415 -1.33901 326.843 4.09281L326.881 4.1307L325.983 4.95179C320.656 -0.442124 312.407 -0.757928 307.396 4.24439Z" fill="#515177"/>
<path d="M332.258 0.41686V0.214746H336.99V0.41686C335.497 0.41686 335.194 0.568445 335.194 2.60222V7.88244H343.026V2.60222C343.026 0.568445 342.709 0.41686 341.229 0.41686V0.214746H345.961V0.41686C344.468 0.41686 344.164 0.568445 344.164 2.60222V25.1885C344.164 27.2222 344.481 27.3738 345.961 27.3738V27.5633H341.229V27.3738C342.722 27.3738 343.026 27.2222 343.026 25.1885V8.07193H335.194V25.1885C335.194 27.2222 335.51 27.3738 336.99 27.3738V27.5633H332.258V27.3738C333.739 27.3738 334.055 27.2222 334.055 25.1885V2.60222C334.055 0.568445 333.739 0.41686 332.258 0.41686Z" fill="#515177"/>
<path d="M349.187 0.41686V0.214746H353.92V0.41686C352.427 0.41686 352.123 0.568445 352.123 2.60222V25.1885C352.123 27.2222 352.439 27.3738 353.92 27.3738V27.5633H349.187V27.3738C350.668 27.3738 350.984 27.2222 350.984 25.1885V2.60222C350.984 0.568445 350.668 0.41686 349.187 0.41686Z" fill="#515177"/>
<path d="M377.238 1.20005L378.604 8.85512H378.415C376.884 2.45063 376.061 0.214746 372.468 0.214746C370.431 0.214746 366.762 1.14952 366.762 4.86337C366.762 10.6489 379.629 13.6553 379.629 20.4135C379.629 25.9211 376.112 27.7528 372.506 27.7528C370.507 27.7528 368.71 27.0075 367.268 26.3127L365.547 16.5481L365.75 16.5102C367.787 25.7316 369.191 27.5633 372.519 27.5633C376.707 27.5633 378.82 25.4537 378.82 21.1588C378.82 14.249 365.99 12.4426 365.99 5.41918C365.99 1.16216 369.634 0.0252642 372.481 0.0252642C374.91 0.0252642 376.745 0.884249 377.251 1.20005H377.238Z" fill="#515177"/>
<path d="M381.73 0.41686V0.214746H386.462V0.41686C384.969 0.41686 384.665 0.568445 384.665 2.60222V20.843C384.665 24.9105 386.626 27.0959 390.182 27.0959C393.231 27.0959 395.382 24.8348 395.382 21.083V2.60222C395.382 0.568445 395.065 0.41686 393.585 0.41686V0.214746H397.381V0.41686C395.888 0.41686 395.584 0.568445 395.584 2.60222V21.083C395.584 24.4811 394.015 27.7275 389.524 27.7275C385.842 27.7275 383.539 25.5043 383.539 20.8556V2.60222C383.539 0.568445 383.223 0.41686 381.742 0.41686H381.73Z" fill="#515177"/>
<path d="M400.329 0.41686V0.214746H405.061V0.41686C403.568 0.41686 403.264 0.568445 403.264 2.60222V25.1885C403.264 27.2222 403.58 27.3738 405.061 27.3738V27.5633H400.329V27.3738C401.809 27.3738 402.125 27.2222 402.125 25.1885V2.60222C402.125 0.568445 401.809 0.41686 400.329 0.41686Z" fill="#515177"/>
<path d="M419.371 1.20005L420.737 8.85512H420.547C419.016 2.45063 418.194 0.214746 414.601 0.214746C412.564 0.214746 408.895 1.14952 408.895 4.86337C408.895 10.6489 421.762 13.6553 421.762 20.4135C421.762 25.9211 418.245 27.7528 414.639 27.7528C412.64 27.7528 410.843 27.0075 409.401 26.3127L407.68 16.5481L407.882 16.5102C409.919 25.7316 411.324 27.5633 414.651 27.5633C418.839 27.5633 420.952 25.4537 420.952 21.1588C420.952 14.249 408.123 12.4426 408.123 5.41918C408.123 1.16216 411.767 0.0252642 414.613 0.0252642C417.043 0.0252642 418.877 0.884249 419.383 1.20005H419.371Z" fill="#515177"/>
<path d="M424.179 0.41686V0.214746H433.175L434.971 7.83192H434.781L433.845 4.19386C433.137 1.54112 432.403 0.404228 429.936 0.404228H427.114V7.83192H427.823C430.011 7.83192 430.682 7.40242 430.125 4.71178L429.695 2.7538H429.885L432.858 15.4112H432.656L432.074 13.0995C430.897 8.56458 430.505 8.0214 428.24 8.0214H427.101V27.3612H429.101C432.15 27.3612 432.706 26.6917 434.263 20.7925L435.161 17.3565H435.363L433.099 27.5507H424.179V27.3612C425.659 27.3612 425.975 27.2096 425.975 25.1758V2.60222C425.975 0.568445 425.659 0.41686 424.179 0.41686Z" fill="#515177"/>
<path d="M438.046 0.41686V0.214746H442.778V0.41686C441.285 0.41686 440.981 0.568445 440.981 2.60222V25.1885C440.981 27.2222 441.298 27.3738 442.778 27.3738V27.5633H438.046V27.3738C439.526 27.3738 439.842 27.2222 439.842 25.1885V2.60222C439.842 0.568445 439.526 0.41686 438.046 0.41686Z" fill="#515177"/>
<path d="M456.088 0.41686V0.214746H460.82V0.41686C459.327 0.41686 459.024 0.568445 459.024 2.60222V27.3738H468.45C470.284 27.3738 471.309 26.6285 472.17 24.5947L474.991 17.3692H475.193L472.144 27.5633H456.101V27.3738C457.581 27.3738 457.898 27.2222 457.898 25.1885V2.60222C457.898 0.568445 457.581 0.41686 456.101 0.41686H456.088Z" fill="#515177"/>
<path d="M476.244 0.41686V0.214746H480.976V0.41686C479.483 0.41686 479.179 0.568445 479.179 2.60222V25.1885C479.179 27.2222 479.495 27.3738 480.976 27.3738V27.5633H476.244V27.3738C477.724 27.3738 478.04 27.2222 478.04 25.1885V2.60222C478.04 0.568445 477.724 0.41686 476.244 0.41686Z" fill="#515177"/>
<path d="M481.735 0.41686V0.214746H486.467V0.41686C484.974 0.41686 484.746 0.568446 485.252 2.52642L491.047 25.2263L496.171 2.52642C496.639 0.568446 496.412 0.41686 494.919 0.41686V0.214746H498.714V0.41686C497.221 0.41686 496.842 0.568446 496.374 2.52642L490.705 27.5633H490.516L484.139 2.52642C483.633 0.568446 483.24 0.41686 481.747 0.41686H481.735Z" fill="#515177"/>
<path d="M499.676 0.41686V0.214746H508.672L510.469 7.83192H510.279L509.342 4.19386C508.634 1.54112 507.9 0.404228 505.433 0.404228H502.611V7.83192H503.32C505.509 7.83192 506.179 7.40242 505.623 4.71178L505.192 2.7538H505.382L508.356 15.4112H508.153L507.571 13.0995C506.394 8.56458 506.002 8.0214 503.737 8.0214H502.599V27.3612H504.598C507.647 27.3612 508.204 26.6917 509.76 20.7925L510.658 17.3565H510.861L508.596 27.5507H499.676V27.3612C501.156 27.3612 501.473 27.2096 501.473 25.1758V2.60222C501.473 0.568445 501.156 0.41686 499.676 0.41686Z" fill="#515177"/>
<path d="M542.884 4.78757H542.682L542.138 2.67801C541.556 0.454756 540.923 0.41686 539.013 0.41686H532.636V25.1885C532.636 27.2222 532.952 27.3738 534.432 27.3738V27.5633H529.7V27.3738C531.193 27.3738 531.497 27.2222 531.497 25.1885V0.41686H525.12C523.197 0.41686 522.577 0.454756 521.995 2.67801L521.451 4.78757H521.248L522.261 0.214746H541.859L542.872 4.78757H542.884Z" fill="#515177"/>
<path d="M545.794 23.7358C540.43 18.1903 540.43 9.47409 545.794 4.08018C551.311 -1.35164 560.003 -1.35164 565.519 4.08018C570.884 9.47409 570.884 18.1776 565.519 23.7358C560.003 29.0918 551.311 29.0918 545.794 23.7358ZM546.693 22.8768C552.057 28.1949 560.307 28.4981 565.355 23.5842C570.289 18.4682 570.011 10.2573 564.608 4.9139C559.244 -0.48002 550.994 -0.745295 545.946 4.24439C541.012 9.17092 541.29 17.4829 546.693 22.8768Z" fill="#515177"/>
<path d="M571.985 0.41686V0.214746H576.717V0.41686C575.224 0.41686 574.92 0.568445 574.92 2.60222V20.843C574.92 24.9105 576.881 27.0959 580.437 27.0959C583.486 27.0959 585.637 24.8348 585.637 21.083V2.60222C585.637 0.568445 585.321 0.41686 583.84 0.41686V0.214746H587.636V0.41686C586.143 0.41686 585.839 0.568445 585.839 2.60222V21.083C585.839 24.4811 584.27 27.7275 579.779 27.7275C576.097 27.7275 573.794 25.5043 573.794 20.8556V2.60222C573.794 0.568445 573.478 0.41686 571.998 0.41686H571.985Z" fill="#515177"/>
<path d="M590.571 0.41686V0.214746H596.278C598.391 0.214746 600.149 1.03583 600.149 3.61279C600.149 5.72235 598.821 7.25084 597.138 8.2993C597.922 7.9456 598.707 7.79402 599.403 7.79402C603.047 7.79402 605.16 10.611 605.16 14.2364V25.1758C605.16 27.2096 605.476 27.3612 606.956 27.3612V27.5507H602.224V27.3612C603.717 27.3612 604.021 27.2096 604.021 25.1758V14.2364C604.021 10.6868 602.376 8.0214 599.403 8.0214C598.036 8.0214 596.822 8.45089 595.809 9.23408C594.987 9.97938 594.279 10.8763 593.886 11.9247C593.646 12.6321 593.494 13.4153 593.494 14.2238V25.1632C593.494 27.197 593.81 27.3485 595.291 27.3485V27.538H590.559V27.3485C592.039 27.3485 592.355 27.197 592.355 25.1632V2.60222C592.355 0.568445 592.039 0.41686 590.559 0.41686H590.571ZM596.594 8.46352C598.163 7.41506 599.289 5.17917 599.289 3.66332C599.289 1.44006 597.96 0.41686 596.278 0.41686H593.494V12.8848C593.886 10.9268 595.291 9.33514 596.581 8.47615L596.594 8.46352Z" fill="#515177"/>
<path d="M626.466 0.0126321C630.06 0.0126321 634.248 4.38335 630.844 9.34777L619.305 27.3612H629.199C631.072 27.3612 631.894 26.578 633.969 20.7546H634.121L632.16 27.5507H618.116L630.009 9.34777C633.375 4.26966 629.769 0.202114 626.454 0.202114C623.987 0.202114 622.506 1.52849 621.684 3.24646C620.975 4.68652 620.747 6.41712 620.747 7.93297H620.001C620.001 6.10132 620.469 4.29492 621.367 2.89276C622.468 1.17479 624.189 0 626.454 0L626.466 0.0126321Z" fill="#515177"/>
<path d="M636.272 13.8574C636.31 6.20237 640.308 0.0631606 645.306 0.0252642C650.354 0.0631606 654.34 6.20237 654.378 13.8574C654.34 21.5125 650.342 27.7275 645.306 27.7654C640.296 27.7275 636.31 21.5125 636.272 13.8574ZM645.319 27.5254C649.734 27.5254 653.226 21.3862 653.226 13.8574C653.226 6.32869 649.747 0.265275 645.319 0.265275C640.89 0.265275 637.449 6.31606 637.449 13.8574C637.449 21.3988 640.928 27.5254 645.319 27.5254Z" fill="#515177"/>
<path d="M664.057 0.0126321C667.65 0.0126321 671.838 4.38335 668.435 9.34777L656.896 27.3612H666.79C668.662 27.3612 669.485 26.578 671.56 20.7546H671.712L669.751 27.5507H655.706L667.6 9.34777C670.965 4.26966 667.359 0.202114 664.044 0.202114C661.577 0.202114 660.097 1.52849 659.274 3.24646C658.566 4.68652 658.338 6.41712 658.338 7.93297H657.592C657.592 6.10132 658.06 4.29492 658.958 2.89276C660.059 1.17479 661.78 0 664.044 0L664.057 0.0126321Z" fill="#515177"/>
<path d="M686.224 27.5633H682.821V27.3738C683.871 27.3738 684.111 27.2222 684.111 25.1885V21.2472H672.8V21.0577L684.149 0.214746H685.009L673.66 21.0325H684.111V12.7458H684.934V21.0325H688.185V21.222H684.934V25.1632C684.934 27.197 685.174 27.3485 686.224 27.3485V27.5633Z" fill="#515177"/>
<path d="M476.8 220.671H483.848C481.305 220.671 481.773 217.058 481.596 215.251C481.064 162.298 480.495 100.514 480.394 47.4336C480.356 66.6723 480.254 87.0858 480.115 107.815C480.065 115.47 480.014 123.151 479.951 130.844C479.812 149.122 479.647 167.388 479.483 185.086C479.47 186.677 478.255 187.991 476.674 188.118C475.333 188.231 473.991 188.282 472.625 188.282C447.915 188.282 427.886 169.776 427.886 151.219C427.886 136.162 438.248 122.532 452.9 115.811C452.9 135.606 452.938 156.613 452.938 156.613C452.799 164.243 450.837 165.582 444.321 165.582H465.059C458.543 165.582 457.151 164.23 457.29 156.613V114.055C460.036 113.108 462.883 112.388 465.831 111.946H457.29V73.3547H446.156C455.506 73.3547 452.014 81.0351 447.839 88.3617L434.528 111.264C434.275 111.693 433.82 111.959 433.326 111.959H416.511C420.712 111.984 426.19 112.072 431.58 112.3C432.618 112.337 433.251 113.474 432.719 114.371L415.891 143.324C415.461 144.057 414.348 143.741 414.348 142.895C414.449 132.486 414.575 122.102 414.702 111.946H416.499C415.866 111.946 415.271 111.946 414.702 111.946C414.904 95.7262 415.107 80.3908 415.107 80.3908C415.284 79.0266 414.866 76.2854 417.41 76.2854H410.312C413.171 76.2854 412.526 79.0139 412.703 80.3908C413.007 103.647 413.373 132.46 413.614 157.876C413.627 159.468 412.311 160.731 410.716 160.668C402.404 160.327 390.915 159.506 390.548 157.459C401.493 152.343 408.932 142.276 408.932 130.692C408.932 113.916 393.345 100.817 374.126 100.817C371.772 100.817 369.482 101.019 367.268 101.385C367.344 94.2356 368.799 92.9472 375.074 92.9472H354.527C360.98 92.9472 362.333 94.2862 362.333 101.992V102.548C353.451 105.251 347.745 111.125 347.707 111.188C347.669 107.083 347.644 102.977 347.619 98.9095C347.517 84.5342 347.441 70.4114 347.416 56.9582C347.403 64.588 347.366 72.4452 347.328 80.4413C347.328 80.8203 347.024 81.1235 346.644 81.1235H295.794C295.478 81.1235 295.225 80.8708 295.237 80.555L295.351 69.1861C295.427 68.2261 294.997 66.8997 297.502 66.8997H291.037C293.238 66.8997 293.086 68.0492 293.086 69.1861C293.124 70.6136 293.213 74.58 293.251 76.0327C293.593 89.5744 293.896 104.442 294.099 118.906C293.997 120.233 293.82 121.572 293.466 122.064C289.961 126.864 286.722 113.171 264.391 113.171C259.051 113.171 253.914 114.055 248.967 115.811C244.02 117.567 239.63 120.308 235.783 124.035C233.405 126.346 231.38 128.835 229.71 131.488C229.229 132.271 228.027 131.943 228.027 131.02C227.939 122.064 227.888 113.26 227.85 104.847C227.749 136.389 227.18 173.186 226.636 204.666C226.471 205.739 226.775 207.887 224.118 207.887H231.684C229.141 207.887 229.217 205.739 229.052 204.666C228.862 193.638 228.673 181.966 228.496 170.092C228.496 169.46 229.305 169.195 229.66 169.725C231.191 172.075 233.012 174.247 235.125 176.269C238.896 179.919 243.223 182.736 248.094 184.707C252.965 186.678 257.963 187.65 263.087 187.65C270.552 187.65 277.423 185.654 283.686 181.65C284.47 181.094 285.432 180.816 286.57 180.816C287.57 180.816 288.418 181.094 289.126 181.65C289.835 182.206 290.189 182.989 290.189 184.025C290.189 184.581 286.912 197.427 286.912 197.427C286.912 197.427 290.872 184.341 290.935 184.126L296.806 160.744C296.945 160.1 297.831 157.068 298.034 156.335C298.008 156.461 298.185 155.906 298.071 156.196C296.148 161.161 292.251 169.245 290.619 172.176C288.987 175.106 286.634 177.709 283.572 179.982C278.447 183.431 272.754 185.149 266.491 185.149C261.721 185.149 257.014 184.126 252.345 182.092C247.689 180.058 243.501 177.241 239.807 173.666C236.112 170.155 233.202 165.973 231.115 161.148C229.596 157.662 228.635 154.15 228.217 150.588C227.914 147.998 229.128 137.374 230.254 134.557C231.785 130.768 234.113 127.319 237.238 124.212C240.515 121.041 244.387 118.717 248.879 117.226C253.358 115.748 258.026 115.003 262.86 115.003C266.984 115.003 270.894 115.508 274.601 116.506C278.296 117.504 281.332 118.868 283.673 120.586L283.774 120.687C286.203 122.532 288.177 124.224 289.771 125.791C292.631 128.582 294.212 132.423 294.238 136.414C294.238 137.589 294.25 138.751 294.263 139.901L294.415 121.647C294.516 114.106 294.668 106.009 294.82 97.8863C295.807 91.5197 298.35 83.8773 304.79 82.1972C306.561 81.7298 319.062 81.8309 319.062 81.8309V176.635C319.062 184.404 317.695 185.755 311.179 185.755H331.917C325.401 185.755 324.034 184.404 324.034 176.635V81.8309L333.511 81.8688C342.823 81.4393 345.91 91.3681 346.923 98.8716V98.8969C347.087 100.122 347.163 101.348 347.163 102.573C347.062 116.544 346.935 130.742 346.796 144.802C346.606 163.978 346.391 182.9 346.189 200.636C346.075 202.531 346.442 205.272 343.861 205.272H350.934C348.517 205.272 348.795 202.72 348.618 200.636C348.327 176.344 348.036 149.893 347.808 123.567C347.783 120.233 347.758 116.898 347.72 113.575C347.783 113.512 354.135 108.03 362.333 105.693V135.631H349.63C349.63 135.631 355.729 135.631 362.333 136.351V165.594C362.321 173.186 360.942 174.513 354.527 174.513H375.074C368.622 174.513 367.268 173.174 367.268 165.468V137.033C372.708 137.968 377.516 139.547 378.427 142.162L386.031 159.127C383.4 159.998 380.616 160.592 377.719 160.857H386.803L395.103 179.389C398.33 186.652 397.482 187.84 391.029 187.84H410.059C403.606 187.84 401.733 186.652 398.507 179.389L390.106 160.857H410.805C412.374 160.857 413.652 162.121 413.664 163.687C413.702 167.451 413.728 171.14 413.753 174.677L413.905 207.483C413.943 191.124 414.247 153.291 414.31 147.594L434.415 113.146C434.68 112.691 435.174 112.426 435.692 112.464C445.498 113.032 453.722 114.156 451.28 116.38C437.046 123.037 427.367 136.124 427.367 151.194C427.367 172.997 447.624 190.669 472.625 190.669C473.776 190.669 474.915 190.631 476.041 190.556C477.876 190.442 479.419 191.895 479.394 193.726C479.318 201.015 479.255 208.203 479.179 215.226C479.002 217.032 479.622 220.645 476.8 220.645V220.671ZM388.84 158.104L378.668 135.656H367.255V104.632C369.482 104.278 371.772 104.089 374.126 104.089C393.13 104.089 408.54 116.418 408.54 130.692C408.54 142.604 400.493 153.177 388.853 158.104H388.84ZM437.54 111.959C436.477 111.959 435.806 110.796 436.338 109.874L452.912 81.4898C452.874 81.6414 452.874 95.9031 452.874 111.959H437.527H437.54Z" fill="#515177"/>
</svg>
