<svg width="868" height="204" viewBox="0 0 868 204" fill="none" xmlns="http://www.w3.org/2000/svg">
<path d="M46.04 9.95194C62.16 9.95194 74.38 15.6719 77.76 17.752L86.86 68.7119H85.56C75.42 26.072 69.96 11.2519 46.04 11.2519C32.52 11.2519 8.08 17.4919 8.08 42.1919C8.08 80.6719 93.62 100.692 93.62 145.672C93.62 182.332 70.22 194.552 46.3 194.552C33.04 194.552 21.08 189.612 11.46 184.932L0.02 119.932L1.32 119.672C14.84 181.032 24.2 193.252 46.3 193.252C74.12 193.252 88.16 179.212 88.16 150.612C88.16 104.592 2.88 92.6319 2.88 45.8319C2.88 17.4919 27.06 9.95194 46.04 9.95194ZM251.302 42.7119C215.942 6.83195 161.082 4.75195 127.802 38.032C94.5219 71.0519 96.6019 126.432 132.222 162.052C167.842 197.672 222.962 199.752 255.982 166.732C269.242 153.472 276.522 137.352 278.862 119.932H282.502C279.122 137.612 270.802 153.992 257.022 167.512C220.882 203.652 163.162 203.652 126.762 167.512C90.6219 131.372 90.6219 73.1319 126.762 36.992C163.162 0.851951 220.882 0.851951 257.022 36.992L257.282 37.2519L251.302 42.7119ZM296.109 27.1119C296.109 13.5919 294.029 12.5519 284.149 12.5519V11.2519H315.609V12.5519C305.729 12.5519 303.649 13.5919 303.649 27.1119V62.212H355.649V27.1119C355.649 13.5919 353.569 12.5519 343.689 12.5519V11.2519H375.149V12.5519C365.269 12.5519 363.189 13.5919 363.189 27.1119V177.392C363.189 190.912 365.269 191.952 375.149 191.952V193.252H343.689V191.952C353.569 191.952 355.649 190.912 355.649 177.392V63.5119H303.649V177.392C303.649 190.912 305.729 191.952 315.609 191.952V193.252H284.149V191.952C294.029 191.952 296.109 190.912 296.109 177.392V27.1119ZM397.672 27.1119C397.672 13.5919 395.592 12.5519 385.712 12.5519V11.2519H445.512L457.472 61.952H456.172L449.932 37.7719C445.252 20.092 440.312 12.5519 423.932 12.5519H405.212V61.952H409.892C424.452 61.952 428.872 59.0919 425.232 41.1519L422.372 28.1519H423.672L443.432 112.392H442.132L438.232 97.052C430.432 66.8919 427.832 63.252 412.752 63.252H405.212V191.952H418.472C438.752 191.952 442.392 187.532 452.792 148.272L458.772 125.392H460.072L444.992 193.252H385.712V191.952C395.592 191.952 397.672 190.912 397.672 177.392V27.1119ZM478.414 27.1119C478.414 13.5919 476.334 12.5519 466.454 12.5519V11.2519H499.474C554.854 11.2519 591.774 50.5119 592.034 100.952C592.294 151.652 554.854 193.252 499.474 193.252H466.454V191.952C476.334 191.952 478.414 190.912 478.414 177.392V27.1119ZM485.954 191.952H499.474C551.214 191.952 583.714 149.832 583.974 100.952C583.714 51.8119 551.214 12.5519 499.474 12.5519H485.954V191.952ZM607.845 27.1119C607.845 13.5919 605.765 12.5519 595.885 12.5519V11.2519H627.345V12.5519C617.465 12.5519 615.385 13.5919 615.385 27.1119V148.532C615.385 175.572 628.385 190.132 652.045 190.132C672.325 190.132 686.625 175.052 686.625 150.092V27.1119C686.625 13.5919 684.545 12.5519 674.665 12.5519V11.2519H699.885V12.5519C690.005 12.5519 687.925 13.5919 687.925 27.1119V150.092C687.925 172.712 677.525 194.292 647.625 194.292C623.185 194.292 607.845 179.472 607.845 148.532V27.1119ZM722.418 27.1119C722.418 13.5919 720.338 12.5519 710.458 12.5519V11.2519H741.918V12.5519C732.038 12.5519 729.958 13.5919 729.958 27.1119V191.952H748.678C768.958 191.952 772.598 186.232 779.618 144.372L782.478 125.392H783.778L774.938 193.252H710.458V191.952C720.338 191.952 722.418 190.912 722.418 177.392V27.1119ZM804.937 27.1119C804.937 13.5919 802.857 12.5519 792.977 12.5519V11.2519H852.777L864.737 61.952H863.437L857.197 37.7719C852.517 20.092 847.577 12.5519 831.197 12.5519H812.477V61.952H817.157C831.717 61.952 836.137 59.0919 832.497 41.1519L829.637 28.1519H830.937L850.697 112.392H849.397L845.497 97.052C837.697 66.8919 835.097 63.252 820.017 63.252H812.477V191.952H825.737C846.017 191.952 849.657 187.532 860.057 148.272L866.037 125.392H867.337L852.257 193.252H792.977V191.952C802.857 191.952 804.937 190.912 804.937 177.392V27.1119Z" fill="#298DD3"/>
</svg>
