<svg width="653" height="121" viewBox="0 0 653 121" fill="none" xmlns="http://www.w3.org/2000/svg">
<path d="M108.282 109.085H120.796L122.966 111.327H54.9005L52.7306 109.085C70.3797 109.085 69.7288 98.307 69.5118 97.1496L40.9403 2.97241C26.1121 43.4787 10.0542 85.4317 10.0542 95.92C10.0542 106.408 13.4539 109.302 20.0362 109.302C32.9114 109.302 46.6546 94.3286 54.3219 68.6505L55.9132 69.3015L44.123 111.399H17.8662C5.56962 111.399 0.216998 105.396 0 95.9923C16.3472 59.0303 23.6528 41.2364 39.2043 2.46608L21.3382 2.32142L19.1682 0.0791016H94.1772L96.3472 2.32142C79.566 2.32142 79.349 12.1587 79.566 13.8947L108.354 109.085H108.282Z" fill="#C69C6D"/>
<path d="M153.852 95.9923H196.745V112.195H132.731V0.151434H153.924V95.92L153.852 95.9923Z" fill="#C69C6D"/>
<path d="M210.922 104.238C211.501 102.213 211.79 98.8856 211.79 94.184V19.1026C211.79 14.401 211.501 11.0737 210.922 9.04836C210.344 7.02304 209.331 4.92539 207.884 2.82775V0.802429H256.492C269.15 0.802429 279.638 3.11708 287.884 7.67404C296.13 12.231 300.253 19.3919 300.253 29.2292C300.253 34.9435 298.589 39.8621 295.262 43.8404C291.935 47.8187 286.51 50.7843 278.915 52.665C287.667 53.967 294.756 57.0773 300.325 62.1406C305.895 67.2039 308.644 73.6415 308.644 81.5258C308.644 91.7247 304.304 99.4643 295.551 104.672C286.799 109.88 274.286 112.484 257.866 112.484H207.812V110.387C209.259 108.289 210.271 106.191 210.85 104.166L210.922 104.238ZM263.725 47.023C268.21 44.8531 271.754 41.8874 274.286 38.0538C276.89 34.2925 278.119 30.0249 278.119 25.1786C278.119 19.6813 276.528 15.6306 273.345 13.0267C270.163 10.495 265.099 9.19303 258.011 9.19303H234.864V50.2057H248.101C253.96 50.2057 259.096 49.1207 263.653 46.9507L263.725 47.023ZM269.873 100.043C274.792 97.2943 278.553 93.6777 281.23 89.1207C283.906 84.5637 285.28 79.7174 285.28 74.5818C285.28 69.4462 283.472 65.3232 279.783 62.7192C276.166 60.1153 270.524 58.8133 263.002 58.8133H234.864V104.166H252.803C259.24 104.166 264.955 102.792 269.873 100.115V100.043Z" fill="#C69C6D"/>
<path d="M477.975 3.47874V62.5022C477.975 102.213 444.774 120.079 410.633 120.079C376.492 120.079 327.089 115.233 327.089 62.5022V3.47874H303.87V1.74275C316.383 1.74275 330.561 2.03209 343.074 2.03209C355.588 2.03209 371.067 1.74275 383.363 1.74275V3.47874H360.145V62.5022C360.145 108.361 390.597 118.271 410.633 118.271C443.544 118.271 476.022 101.2 476.022 62.5022V3.47874H452.08V1.74275C460.325 1.74275 468.788 2.03209 477.251 2.03209C485.714 2.03209 493.96 1.74275 502.423 1.74275V3.47874H477.975Z" fill="#C69C6D"/>
<path d="M630.669 113.207L630.524 39.7898L589.584 100.549H579.24L538.3 40.7301V113.207H516.239V2.46608H535.262L584.738 75.8838L633.345 2.46608H652.369L652.586 113.28H630.669V113.207Z" fill="#C69C6D"/>
</svg>
