<svg width="640" height="182" viewBox="0 0 640 182" fill="none" xmlns="http://www.w3.org/2000/svg">
<path d="M26.0022 83.1579V72.2024L29.2459 68.9587H11.6868L14.9305 72.2024V83.1579C14.9305 99.6268 14.2067 113.486 2.2415 124.737C25.0996 119.876 26.0022 100.261 26.0022 83.1579Z" fill="#F2F5F8"/>
<path d="M59.1724 128.249V115.935H75.3107L78.9119 119.536V103.335L75.3107 106.391H59.1724V94.7031H83.9697L87.5709 98.3043V82.1034L83.9697 85.1685H59.1724V82.586L62.7736 79.0742H46.0366L49.6378 82.586V85.1685H32.7488L29.237 81.5673V98.3043L32.7488 94.7031H49.6378V106.391H32.7488L29.237 102.799V119.536L32.7488 115.935H49.6378V128.249H16.2352L12.634 124.647V140.848L16.2352 137.792H87.9372L91.4491 141.393V124.647L87.9372 128.249H59.1724Z" fill="#F2F5F8"/>
<path d="M140.722 61.1129L143.966 57.8692H126.326L129.57 61.1129C129.57 77.7785 110.938 89.9045 110.938 89.9045C117.301 89.7079 123.985 86.4642 129.4 81.8443V100.833C129.4 117.302 128.676 131.162 116.711 142.412C139.569 137.551 140.472 117.937 140.472 100.833V64.7141C140.695 63.4899 140.793 62.2925 140.731 61.1129H140.722Z" fill="#F2F5F8"/>
<path d="M199.485 52.1859L196.25 48.9422V64.7767L199.485 61.5418H207.384V99.886C207.384 116.355 206.66 130.215 194.695 141.465C217.553 136.604 218.456 116.989 218.456 99.886V61.5418H227.007L230.242 64.7767V48.9422L227.007 52.1859H199.485Z" fill="#F2F5F8"/>
<path d="M157.87 46.3239L154.358 42.7227V59.4598L157.87 55.8586H166.574V64.2673H153.867L150.265 60.6661V76.867L153.867 73.802H188.913L192.425 77.4031V60.6661L188.913 64.2673H176.108V55.8586H184.731L188.333 59.4598V43.2589L184.731 46.3239H176.108V35.9404L179.709 32.4375H162.972L166.574 35.9404V46.3239H157.87Z" fill="#F2F5F8"/>
<path d="M199.976 128.454V110.904L196.732 114.148H184.052C181.336 114.148 178.682 114.13 176.108 114.041V102.281H184.722L188.324 105.882V89.6811L184.722 92.7372H176.108V83.4885L179.709 79.9767H162.972L166.574 83.4885V92.7372H157.87L154.358 89.136V105.873L157.87 102.272H166.574V113.272C157.53 112.003 149.497 108.92 142.482 101.45C147.343 124.308 166.958 125.21 184.061 125.21H196.741L199.985 128.454H199.976Z" fill="#F2F5F8"/>
<path d="M326.464 50.6757L322.738 54.411H307.199V44.2597L310.925 40.5334H290.926L294.652 44.2597V54.411H259.016L255.29 50.6757V69.2268L259.016 65.5005H294.76L294.447 104.014H285.118C282.732 100.806 277.138 87.331 291.641 71.5858C269.158 77.0815 261.902 100.806 279.417 115.935H293.509C293.509 132.52 290.917 138.516 288.326 144.53C305.313 133.548 307.082 116.453 307.181 98.4294C307.288 90.8607 307.181 72.8726 307.181 65.5183H322.72L326.447 69.2446V50.6936L326.464 50.6757Z" fill="#F2F5F8"/>
<path d="M376.005 112.727C375.076 105.989 375.174 98.2239 375.174 90.9679V49.2013L378.802 45.475H358.393L362.119 49.2013V90.9679C362.119 99.046 361.708 106.615 363.361 114.898C366.882 132.1 377.551 139.553 388.846 139.553C383.976 136.032 378.275 130.018 375.996 112.718L376.005 112.727Z" fill="#F2F5F8"/>
<path d="M428.111 94.0866C428.111 70.5671 417.236 59.2721 404.386 57.4134C412.258 64.5622 415.055 72.542 415.055 94.0866V120.054L411.329 123.781H432.159L428.12 120.054V94.0866H428.111Z" fill="#F2F5F8"/>
<path d="M583.847 112.727C582.917 105.989 583.015 98.2239 583.015 90.9679V49.2013L586.643 45.475H566.234L569.96 49.2013V90.9679C569.96 99.046 569.549 106.615 571.202 114.898C574.723 132.1 585.392 139.553 596.687 139.553C591.817 136.032 586.116 130.018 583.838 112.718L583.847 112.727Z" fill="#F2F5F8"/>
<path d="M619.17 123.79H640L635.961 120.063V94.0955C635.961 70.5761 625.086 59.2811 612.236 57.4224C620.109 64.5711 622.906 72.5509 622.906 94.0955V120.063L619.179 123.79H619.17Z" fill="#F2F5F8"/>
<path d="M521.777 62.3282C521.983 56.9398 521.885 57.5832 521.885 53.1331L525.611 49.4068H506.032L509.759 53.1331C509.759 59.0398 509.651 60.7823 509.553 62.3282H487.767V53.1331L491.493 49.4068H471.915L475.641 53.1331V62.3282H462.898L459.172 58.6019V76.8312L462.898 73.105H475.641V135.63H496.078C519.597 135.63 530.892 124.755 532.751 111.905C525.602 119.777 517.622 122.574 496.078 122.574H487.767V73.105H508.722C507.793 83.8817 503.646 94.3457 495.354 102.629C511.099 98.903 517.944 88.6446 520.634 73.105H531.723L535.449 76.8312V58.6019L531.723 62.3282H521.777Z" fill="#F2F5F8"/>
<path d="M5.9946 43.4287C9.37238 44.1436 12.7412 44.5278 16.1101 44.8674C19.8006 45.2069 23.4912 45.475 27.1817 45.6984C27.7626 55.5101 32.3199 65.3575 41.2827 71.845H51.0675L53.793 74.4185V60.0585L51.0407 62.8108H44.4996C40.0406 58.9772 37.4938 52.5791 36.9308 46.1452C43.463 46.3775 50.0131 46.4758 56.5631 46.5116C61.3885 46.5205 66.2139 46.458 71.0483 46.315C71.0483 46.315 71.0483 46.3239 71.0483 46.3329L71.084 46.315C73.3895 46.2435 75.7039 46.1541 78.0094 46.0469C77.6788 46.3418 75.7575 47.8699 70.8696 48.5847C69.8509 58.5126 65.5706 68.6191 58.1537 75.3657C72.2725 72.2114 79.8681 59.2453 80.9046 45.895C86.3377 45.5912 91.7708 45.1712 97.2038 44.5904C102.699 44.0453 108.195 43.25 113.7 42.267H113.717L129.177 39.6667L129.713 41.4896C113.959 44.2687 98.1421 46.7797 82.2004 48.2362C98.2851 47.5035 114.352 45.7074 130.338 43.6253L134.502 57.7798L139.471 40.8909H157.039L146.128 28.8899L157.039 16.8889H139.471L134.502 0L129.534 16.8889H111.957L121.009 26.8436C121.644 26.8436 122.26 26.8436 122.859 26.8257C125.709 26.7632 128.14 26.5844 129.695 26.4325C130.839 26.3253 131.518 26.2359 131.518 26.2359C131.518 26.2359 127.238 27.6746 122.644 29.1222L122.618 29.158C121.688 29.4707 120.759 29.7746 119.812 30.0694C118.284 30.5788 116.711 30.9988 115.147 31.4456C108.865 33.1613 102.44 34.6268 95.926 35.7616C90.904 36.6731 85.8373 37.4416 80.7438 38.1118C79.1979 24.7168 70.8428 12.8141 55.6248 12.3763C38.6644 11.9027 28.3791 25.1726 27.1996 40.5692C27.1639 40.9892 27.1549 41.4181 27.1281 41.847C23.5001 41.9006 19.8811 41.9096 16.262 41.847C12.9378 41.7577 9.60472 41.6236 6.36097 41.1858C5.55673 41.0785 4.7525 40.9356 3.99294 40.7568C3.25126 40.5781 2.45596 40.319 2.0181 40.0062C1.91087 39.9347 1.84832 39.8632 1.83044 39.8454C1.82151 39.8275 1.82151 39.8811 1.80364 39.8632C1.77683 39.8096 1.97342 39.5237 2.21469 39.3003C2.73297 38.8356 3.43891 38.4156 4.14485 38.0403C7.04904 36.5659 10.266 35.4936 13.4382 34.4749C16.6373 33.474 19.8721 32.5715 23.1248 31.7494C19.8185 32.3213 16.5211 32.9826 13.2416 33.7511C9.96216 34.5374 6.70054 35.3506 3.50147 36.682C2.70617 37.0306 1.91087 37.4059 1.1245 38.0046C0.749195 38.3263 0.302397 38.6658 0.0611267 39.4343C-0.0550406 39.8186 -0.00142493 40.319 0.18623 40.6675C0.364949 41.0249 0.597284 41.2662 0.820682 41.4538C1.71428 42.1687 2.56319 42.4279 3.42104 42.7317C4.26996 42.9998 5.11887 43.2142 5.95885 43.3929L5.9946 43.4287ZM153.625 39.5326H139.346L137.755 35.6812L135.307 29.7746L153.625 39.5237V39.5326ZM152.651 19.7127L145.127 27.9874L144.645 28.5235H136.111L152.66 19.7127H152.651ZM134.913 6.2641L138.166 17.3089L138.461 18.3008H138.497L134.922 26.9329V6.2641H134.913ZM131.116 38.1654L134.127 30.9005V51.5693L130.874 40.5245L130.58 39.5326H130.544L131.107 38.1654H131.116ZM55.187 21.7501C64.4804 21.9556 69.6632 29.3188 70.8606 39.2913C66.0442 39.7918 61.2098 40.2028 56.3665 40.5513C54.5793 40.6675 52.7921 40.7836 51.005 40.8909C42.9715 41.4181 37.4938 37.0216 38.7091 33.0541H38.6734C41.3095 26.3253 46.7604 21.5178 55.178 21.7501H55.187Z" fill="#F2F5F8"/>
<path d="M223.862 44.7155L227.097 47.9503V32.1158L223.862 35.3506H202.621L199.386 32.1158V47.9503L202.621 44.7155H223.862Z" fill="#F2F5F8"/>
<path d="M378.775 171.91L376.845 165.958L374.906 171.91H368.66L373.718 175.582L371.788 181.525L376.845 177.852L381.903 181.525L379.964 175.582L385.022 171.91H378.775Z" fill="#F2F5F8"/>
<path d="M398.39 170.364C398.39 169.22 399.078 168.228 400.275 168.228C401.169 168.228 401.857 168.702 401.893 170.015H402.027V167.084C401.553 166.798 400.883 166.646 400.275 166.646C397.872 166.646 396.603 168.192 396.603 170.498C396.603 172.365 397.327 173.563 399.114 175.332C400.615 176.816 400.66 177.334 400.66 177.924C400.66 178.719 400.016 179.255 398.962 179.255C397.854 179.255 396.79 178.647 396.79 177.137H396.656V180.318C397.192 180.586 397.934 180.828 398.962 180.828C401.133 180.828 402.483 179.764 402.483 177.879C402.483 176.816 402.143 175.743 400.517 174.072C398.685 172.187 398.381 171.195 398.381 170.355L398.39 170.364Z" fill="#F2F5F8"/>
<path d="M426.216 166.95C426.976 166.95 427.056 166.968 427.056 167.486V176.878C427.056 178.424 426.449 179.201 425.269 179.201C423.92 179.201 423.419 178.424 423.419 176.878V167.486C423.419 166.977 423.5 166.977 424.295 166.95V166.834H420.712V166.95C421.382 166.968 421.552 166.968 421.552 167.486V176.726C421.552 179.586 422.982 180.819 425.269 180.819C427.387 180.819 428.853 179.577 428.853 176.726V167.486C428.853 166.977 428.951 166.95 429.728 166.95V166.834H426.225V166.95H426.216Z" fill="#F2F5F8"/>
<path d="M448.101 166.95C448.771 166.968 448.941 167.031 448.941 167.486V179.961C448.941 180.461 448.771 180.515 448.101 180.533V180.649H451.684V180.533C450.942 180.515 450.808 180.452 450.808 179.961V167.486C450.808 167.031 450.924 166.977 451.684 166.95V166.834H448.101V166.95Z" fill="#F2F5F8"/>
<path d="M471.897 170.364C471.897 169.22 472.585 168.228 473.782 168.228C474.676 168.228 475.364 168.702 475.4 170.015H475.534V167.084C475.06 166.798 474.39 166.646 473.782 166.646C471.379 166.646 470.11 168.192 470.11 170.498C470.11 172.365 470.834 173.563 472.621 175.332C474.122 176.816 474.167 177.334 474.167 177.924C474.167 178.719 473.523 179.255 472.469 179.255C471.361 179.255 470.297 178.647 470.297 177.137H470.163V180.318C470.7 180.586 471.441 180.828 472.469 180.828C474.64 180.828 475.99 179.764 475.99 177.879C475.99 176.816 475.65 175.743 474.024 174.072C472.192 172.187 471.888 171.195 471.888 170.355L471.897 170.364Z" fill="#F2F5F8"/>
<path d="M501.126 178.495C501.126 178.933 500.975 179.05 500.537 179.05H496.918V176.119H499.018C499.402 176.119 499.527 176.288 499.527 176.619V177.209H499.643V173.518H499.527V174.108C499.527 174.43 499.393 174.599 499.018 174.599H496.918V168.451H500.349C500.787 168.451 500.939 168.568 500.939 169.006V169.595H501.055V166.852H494.219V166.968C494.737 166.986 495.059 166.986 495.059 167.504V180.015C495.059 180.533 494.737 180.533 494.219 180.551V180.667H501.243V177.924H501.126V178.513V178.495Z" fill="#F2F5F8"/>
<path d="M519.713 166.95C520.383 166.968 520.553 167.031 520.553 167.486V179.961C520.553 180.461 520.383 180.515 519.713 180.533V180.649H523.297V180.533C522.555 180.515 522.421 180.452 522.421 179.961V167.486C522.421 167.031 522.537 166.977 523.297 166.95V166.834H519.713V166.95Z" fill="#F2F5F8"/>
<path d="M122.233 166.95C122.752 166.968 123.073 166.968 123.073 167.486V174.671H119.454V167.486C119.454 166.977 119.705 166.977 120.33 166.95V166.834H116.747V166.95C117.265 166.968 117.587 166.968 117.587 167.486V179.997C117.587 180.515 117.265 180.515 116.747 180.533V180.649H120.33V180.533C119.705 180.515 119.454 180.515 119.454 179.997V176.261H123.073V179.997C123.073 180.515 122.752 180.515 122.233 180.533V180.649H125.772V180.533C125.147 180.515 124.932 180.515 124.932 179.997V167.486C124.932 166.977 125.138 166.977 125.772 166.95V166.834H122.233V166.95Z" fill="#F2F5F8"/>
<path d="M148.049 166.646C145.306 166.646 143.992 168.934 143.992 173.67C143.992 178.406 145.306 180.828 148.049 180.828C150.793 180.828 152.106 178.487 152.106 173.67C152.106 168.854 150.793 166.646 148.049 166.646ZM148.031 179.273C146.53 179.273 145.976 177.727 145.976 173.67C145.976 169.613 146.53 168.201 148.031 168.201C149.533 168.201 150.122 169.703 150.122 173.67C150.122 177.638 149.551 179.273 148.031 179.273Z" fill="#F2F5F8"/>
<path d="M172.436 170.364C172.436 169.22 173.124 168.228 174.321 168.228C175.215 168.228 175.903 168.702 175.938 170.015H176.072V167.084C175.599 166.798 174.929 166.646 174.321 166.646C171.917 166.646 170.648 168.192 170.648 170.498C170.648 172.365 171.372 173.563 173.159 175.332C174.661 176.816 174.705 177.334 174.705 177.924C174.705 178.719 174.062 179.255 173.007 179.255C171.899 179.255 170.836 178.647 170.836 177.137H170.702V180.318C171.238 180.586 171.98 180.828 173.007 180.828C175.179 180.828 176.528 179.764 176.528 177.879C176.528 176.816 176.189 175.743 174.562 174.072C172.73 172.187 172.427 171.195 172.427 170.355L172.436 170.364Z" fill="#F2F5F8"/>
<path d="M200.253 166.95C200.771 166.968 201.093 166.968 201.093 167.486V174.671H197.474V167.486C197.474 166.977 197.724 166.977 198.35 166.95V166.834H194.766V166.95C195.285 166.968 195.606 166.968 195.606 167.486V179.997C195.606 180.515 195.285 180.515 194.766 180.533V180.649H198.35V180.533C197.724 180.515 197.474 180.515 197.474 179.997V176.261H201.093V179.997C201.093 180.515 200.771 180.515 200.253 180.533V180.649H203.792V180.533C203.166 180.515 202.952 180.515 202.952 179.997V167.486C202.952 166.977 203.157 166.977 203.792 166.95V166.834H200.253V166.95Z" fill="#F2F5F8"/>
<path d="M222.173 166.95C222.843 166.968 223.013 167.031 223.013 167.486V179.961C223.013 180.461 222.843 180.515 222.173 180.533V180.649H225.756V180.533C225.015 180.515 224.881 180.452 224.881 179.961V167.486C224.881 167.031 224.997 166.977 225.756 166.95V166.834H222.173V166.95Z" fill="#F2F5F8"/>
<path d="M252.135 166.646L249.866 172.911L247.596 166.646C247.274 166.78 246.381 166.834 245.71 166.834H244.093V166.95C244.611 166.968 244.933 166.986 244.933 167.46V179.988C244.933 180.506 244.611 180.506 244.093 180.524V180.64H247.48V180.524C246.854 180.506 246.72 180.506 246.72 179.988V168.863L249.731 177.093H249.848C249.848 176.824 250.017 176.387 250.134 176.083L252.895 168.863V179.988C252.895 180.506 252.493 180.488 252.055 180.524V180.64H255.522V180.524C255.013 180.488 254.682 180.488 254.682 179.97V167.46C254.682 166.968 254.968 166.986 255.522 166.95V166.834H253.824C253.404 166.834 252.475 166.78 252.126 166.646H252.135Z" fill="#F2F5F8"/>
<path d="M283.116 179.997L279.479 166.834H278.067L274.448 179.997C274.35 180.318 274.216 180.515 273.724 180.533V180.649H276.79V180.533C276.37 180.533 276.048 180.497 276.048 180.175C276.048 180.14 276.048 180.077 276.066 180.006L276.673 177.781H280.596L281.204 180.006C281.222 180.086 281.24 180.158 281.24 180.22C281.24 180.542 280.882 180.542 280.48 180.542V180.658H283.867V180.542C283.331 180.524 283.179 180.309 283.107 180.006L283.116 179.997ZM277.093 176.244L278.657 170.417L280.185 176.244H277.093Z" fill="#F2F5F8"/>
<path d="M306.001 179.219C304.25 179.219 303.374 177.772 303.374 174.054C303.374 170.337 304.098 168.21 305.867 168.21C307.047 168.21 307.395 168.97 307.431 170.328H307.547V166.977C307.073 166.789 306.77 166.655 305.796 166.655C303.017 166.655 301.399 169.434 301.399 174.063C301.399 178.692 302.945 180.846 305.474 180.846C307.359 180.846 307.967 179.327 308.003 177.834L307.887 177.816C307.717 178.907 306.993 179.228 306.001 179.228V179.219Z" fill="#F2F5F8"/>
<path d="M331.585 166.95C332.103 166.968 332.425 166.968 332.425 167.486V174.671H328.806V167.486C328.806 166.977 329.056 166.977 329.681 166.95V166.834H326.098V166.95C326.616 166.968 326.938 166.968 326.938 167.486V179.997C326.938 180.515 326.616 180.515 326.098 180.533V180.649H329.681V180.533C329.056 180.515 328.806 180.515 328.806 179.997V176.261H332.425V179.997C332.425 180.515 332.103 180.515 331.585 180.533V180.649H335.123V180.533C334.498 180.515 334.283 180.515 334.283 179.997V167.486C334.283 166.977 334.489 166.977 335.123 166.95V166.834H331.585V166.95Z" fill="#F2F5F8"/>
<path d="M353.505 166.95C354.175 166.968 354.345 167.031 354.345 167.486V179.961C354.345 180.461 354.175 180.515 353.505 180.533V180.649H357.088V180.533C356.346 180.515 356.212 180.452 356.212 179.961V167.486C356.212 167.031 356.328 166.977 357.088 166.95V166.834H353.505V166.95Z" fill="#F2F5F8"/>
</svg>
